<svg id="visual" viewBox="0 0 900 600" width="900" height="600" xmlns="http://www.w3.org/2000/svg" xmlns:xlink="http://www.w3.org/1999/xlink" version="1.1"><rect x="0" y="0" width="900" height="600" fill="#001122"></rect><path d="M0 496L21.5 480.3C43 464.7 86 433.3 128.8 429.5C171.7 425.7 214.3 449.3 257.2 450.7C300 452 343 431 385.8 423.3C428.7 415.7 471.3 421.3 514.2 438.3C557 455.3 600 483.7 642.8 480.2C685.7 476.7 728.3 441.3 771.2 426.3C814 411.3 857 416.7 878.5 419.3L900 422L900 601L878.5 601C857 601 814 601 771.2 601C728.3 601 685.7 601 642.8 601C600 601 557 601 514.2 601C471.3 601 428.7 601 385.8 601C343 601 300 601 257.2 601C214.3 601 171.7 601 128.8 601C86 601 43 601 21.5 601L0 601Z" fill="#F7770F" stroke-linecap="round" stroke-linejoin="miter"></path></svg>